<svg width="255" height="60" viewBox="0 0 255 60" fill="none" xmlns="http://www.w3.org/2000/svg">
<path fill-rule="evenodd" clip-rule="evenodd" d="M255 0H0V60H255V0ZM35.6129 22.2746L30 5L24.3871 22.2746H6.22359L20.9182 32.9509L15.3054 50.2254L30 39.5491L44.6946 50.2254L39.0818 32.9509L53.7764 22.2746H35.6129ZM80 5L85.6129 22.2746H103.776L89.0818 32.9509L94.6946 50.2254L80 39.5491L65.3054 50.2254L70.9182 32.9509L56.2236 22.2746H74.3871L80 5ZM135.613 22.2746L130 5L124.387 22.2746H106.224L120.918 32.9509L115.305 50.2254L130 39.5491L144.695 50.2254L139.082 32.9509L153.776 22.2746H135.613ZM180 5L185.613 22.2746H201.224L202.5 23.2019L189.082 32.9509L194.695 50.2254L180 39.5491L165.305 50.2254L170.918 32.9509L156.224 22.2746H174.387L180 5ZM203.776 22.2746L202.5 23.2019L215.918 32.9509L210.305 50.2254L225 39.5491L239.695 50.2254L234.082 32.9509L248.776 22.2746H230.613L225 5L219.387 22.2746H203.776Z" fill="white"/>
</svg>
